<svg width="70" height="83" fill="none" xmlns="http://www.w3.org/2000/svg"><g clip-path="url(#clip0_6_112)"><path d="M47.76 44.861c1.65.658 2.602 1.436 2.602 2.268 0 2.368-7.699 4.286-17.196 4.286-9.497 0-17.196-1.918-17.196-4.29 0-1.306 1.672-2.282 5.365-3.068m4.158-.764a62.767 62.767 0 017.673-.45c6.151 0 11.557.806 14.595 2.018" stroke="#231F20" stroke-width=".198" stroke-miterlimit="10"/><path d="M33.54 50.593c-8.84 0-16.641-1.05-17.598-3.407a.015.015 0 00-.018-.007.018.018 0 00-.01.007l-.041 33.289c0 1.055 1.006 1.913 2.25 1.914h30.081c1.266 0 2.292-.87 2.293-1.942l-.074-33.16-.001-.008a.02.02 0 00-.004-.006.018.018 0 00-.006-.005.017.017 0 00-.008-.001.02.02 0 00-.014.002.022.022 0 00-.01.013c-.95 2.123-8.053 3.31-16.84 3.31z" fill="#231F20"/><path d="M33.663 55.493c-2.46-9.249.745-17.754 7.413-23.708M30.652 59.547c-.628-5.305-.716-10.709-.441-16.034.107-1.706.346-3.4.712-5.065.736-3.547 1.806-7.053 2.176-10.647.211-2.04.013-5.298-3.01-5.647m-7.492 23.189l7.423 5.666" stroke="#231F20" stroke-width=".393" stroke-linecap="round" stroke-linejoin="round"/><path d="M59.251 13.381l-.895-.037a.642.642 0 00-.448.153.715.715 0 00-.24.428c-.235 1.455-.748 3.204-1.458 3.573-.131.064-.68.352-1.178.11-.57-.278-.874-1.534-.96-2.796a1.415 1.415 0 00-.38-.894 1.267 1.267 0 00-.846-.398c-.858-.046-1.72-.085-2.582-.114-.31-.009-.613.1-.854.31-.24.208-.401.5-.454.825-.197 1.207-.336 2.51-.372 2.671-.378 1.675-2.105 4.555-3.45 2.306-.496-.833-.497-2.318-.32-3.81a1.41 1.41 0 00-.05-.593 1.352 1.352 0 00-.287-.51 1.256 1.256 0 00-.468-.328 1.194 1.194 0 00-.557-.079c-4.752.568-7.153 3.988-8.114 7.556-.995 3.693.817 10.592 3.855 9.659 1.337-.416 1.54.191 1.787-.034 2.868-2.597 6.1-5.242 10.983-7.827 5.744-3.04 6.56-3.595 7.329-3.094.378.248-1.515.192-9.957 5.344-3.01 1.84-5.758 4.318-7.8 6.15-.356.318.156.894-.403 2.525-.481 1.408 1.37 3.863 2.313 4.993 2.355 2.81 6.042 3.224 9.16 1.678l.195-.097c1.111-.555 1.118-1.463.014-2.026-2.187-1.11-5.415-2.678-5.316-3.077.098-.398.666-.58.876-.643 1.066-.32 3.58.885 5.789 2.141a2.157 2.157 0 001.728.17 2.308 2.308 0 001.337-1.171v-.011A13.01 13.01 0 0058.47 32.4c.027-.195.06-.39.097-.585a.76.76 0 00-.025-.362.722.722 0 00-.189-.302 15.296 15.296 0 01-2.013-2.368c-.433-.633-1.101-2.996.842-2.837.807.067 2.486 2.436 3.664 3.124a.635.635 0 00.57.042c5.029-2.161 7.127-10.696 7.666-13.352a.742.742 0 00-.092-.531.669.669 0 00-.418-.308l-.079-.012c-3.087-.308-6.143-1.411-9.242-1.528zM4.5 13.613c.153.31.3.623.444.938.079.17.213.304.378.377.166.073.35.08.52.02 1.455-.535 3.327-.941 4.042-.407.131.094.685.51.724 1.144.047.736-.936 1.715-2.044 2.475-.296.2-.512.508-.608.866a1.61 1.61 0 00.084 1.076c.417.905.84 1.813 1.272 2.711.157.325.418.578.737.714s.673.145.998.026c1.207-.44 2.474-.992 2.64-1.04 1.732-.504 5.285-.266 3.946 2.314-.493.95-1.856 1.745-3.307 2.358-.83.35-1.178 1.43-.654 2.203 3.05 4.577 7.46 5.22 11.23 4.31 3.907-.945 9.247-6.482 6.776-9.104-1.089-1.155-.646-1.684-.983-1.813-3.904-1.561-8.042-3.467-13.006-7.107-5.843-4.275-6.79-4.814-6.732-5.86.025-.52.983 1.45 10.19 7.372 3.288 2.115 7.012 3.606 9.777 4.733.48.194.735-.637 2.522-.932 1.543-.257 2.802-3.468 3.328-5.033 1.317-3.912-.272-7.922-3.347-10.304l-.206-.148c-1.094-.846-1.938-.364-1.86 1.066.147 2.84.439 6.986.021 7.098-.417.112-.883-.375-1.054-.555-.861-.924-1.098-4.147-1.127-7.086a2.737 2.737 0 00-.761-1.868 2.435 2.435 0 00-1.785-.751h-.014a12.378 12.378 0 00-4.349.874 10.42 10.42 0 01-.587.213.74.74 0 00-.318.218.803.803 0 00-.175.355 18.028 18.028 0 01-1.092 3.33c-.348.781-2.152 2.727-3.04.645-.37-.865.9-3.851.904-5.42a.818.818 0 00-.067-.333.776.776 0 00-.195-.27c-4.656-4.012-13.57-1.62-16.29-.758a.722.722 0 00-.253.142.771.771 0 00-.184.235.814.814 0 00-.057.594.73.73 0 00.03.09C2.336 6.641 2.956 10.37 4.5 13.613zm12.224 27.872c-3.716-2.738-7.556-3.955-7.429-4.248.067-.155 1.057.194 1.383.31 4.285 1.514 10.9 6.052 13.732 8.517.524-1.054-.539-2.68-2.521-4.684-.939.229-2.094.086-2.88-.537-.13-.102-.916-.73-.89-1.594.018-.297.11-.585.269-.832a38.586 38.586 0 00-3.07-2.02c-5.964-3.547-11.602-4.88-12.593-2.974-.493.949.262 2.522 1.878 4.3a4.41 4.41 0 01.131-.731c.385-1.402 1.449-1.98 1.971-1.32.542.686.551 2.775.092 4.14a36.392 36.392 0 003.942 2.874c.423-1.268 1.415-1.767 1.914-1.138.348.441.475 1.462.393 2.497 4.817 2.626 9.16 3.898 10.757 2.903-1.455-1.072-3.546-2.863-7.079-5.464z" fill="#3361BB"/></g><defs><clipPath id="clip0_6_112"><path fill="#fff" transform="translate(.904 .753)" d="M0 0h68.203v81.639H0z"/></clipPath></defs></svg>