<svg width="54" height="74" fill="none" xmlns="http://www.w3.org/2000/svg"><g clip-path="url(#clip0_6_134)"><path d="M4.117 72.611L8.16 39.386l1.357-12.769h35.73l1.363 12.807 4.04 33.187" stroke="#000" stroke-width="2.059" stroke-miterlimit="10" stroke-linecap="round"/><path d="M8.427 37.309h38.161M7.312 47.85h40.186M6.207 58.02h42.25M5.16 68.008h44.536" stroke="#000" stroke-width="2.059" stroke-miterlimit="10"/><path d="M45.428.566H8.858C4.497.566.964 3.978.964 8.187v40.374c0 4.21 3.533 7.621 7.892 7.621h36.571c4.36 0 7.893-3.412 7.893-7.62V8.186c0-4.209-3.534-7.62-7.893-7.62z" fill="#1F62C0"/><path d="M41.972 11.057H13.125c-2.887 0-5.227 2.26-5.227 5.048v6.773c0 2.788 2.34 5.047 5.227 5.047h28.847c2.886 0 5.227-2.26 5.227-5.047v-6.773c0-2.788-2.34-5.048-5.227-5.048zm2.161-3.266H10.72c-.95 0-1.718-.611-1.718-1.368 0-.755.769-1.368 1.966-1.368h33.41c.703 0 1.484.613 1.484 1.368-.012.757-.781 1.368-1.73 1.368z" fill="#fff"/><path d="M42.654 49.115c2.24 0 4.055-1.753 4.055-3.916 0-2.162-1.815-3.915-4.055-3.915-2.24 0-4.055 1.753-4.055 3.916 0 2.162 1.816 3.915 4.055 3.915zm-30.741 0c2.24 0 4.055-1.753 4.055-3.916 0-2.162-1.815-3.915-4.055-3.915-2.24 0-4.055 1.753-4.055 3.916 0 2.162 1.816 3.915 4.055 3.915z" fill="#000"/><path d="M27.055 28.169S15.887 38.127.945 38.86m25.774-10.691s11.682 9.868 26.624 10.6" stroke="#fff" stroke-width=".793" stroke-miterlimit="10"/></g><defs><clipPath id="clip0_6_134"><path fill="#fff" transform="translate(.925 .566)" d="M0 0h52.437v73H0z"/></clipPath></defs></svg>