<svg width="66" height="65" fill="none" xmlns="http://www.w3.org/2000/svg"><g clip-path="url(#clip0_6_147)"><path d="M60.616 10.12H4.58a4.45 4.45 0 00-4.45 4.451v45.197a4.45 4.45 0 004.45 4.45h56.037a4.45 4.45 0 004.45-4.45V14.57a4.45 4.45 0 00-4.45-4.45z" fill="#000"/><path d="M52.58 4.208a3.655 3.655 0 10-7.308 0v8.247a3.655 3.655 0 107.307 0V4.208zm-33.066 0a3.655 3.655 0 10-7.307 0v8.247a3.655 3.655 0 107.307 0V4.208z" fill="#3361BB" stroke="#fff" stroke-width=".424" stroke-miterlimit="10"/><path d="M42.243 55.745a12.923 12.923 0 10-11.93-7.976 12.916 12.916 0 0011.93 7.977z" fill="#fff"/><path d="M42.315 32.047v3.85m0 13.928v4.244m-.099-22.847v4.24m8.124-.256l-2.673 2.54M37.59 47.449l-2.464 3.017m-.741-15.356l2.475 2.544m13.053 12.301l-2.632-2.674m1.872-4.374h4.164m-21.781.053h3.82" stroke="#231F20" stroke-width=".229" stroke-miterlimit="10"/><path d="M42.27 43.866a1.559 1.559 0 10.007-3.118 1.559 1.559 0 00-.008 3.118z" fill="#3361BB"/><path d="M42.216 32.288l.1 10.493 9.27.103" stroke="#3361BB" stroke-width=".806" stroke-miterlimit="10" stroke-linecap="round"/><path d="M15.072 36.642a3.72 3.72 0 00.328 1.631c.207.44.518.823.906 1.116a4.27 4.27 0 001.329.63c.54.127 1.095.19 1.65.187.551.01 1.1-.06 1.631-.21a3.52 3.52 0 001.096-.584c.262-.21.47-.48.604-.787.123-.296.186-.612.187-.932a1.91 1.91 0 00-.443-1.395 2.261 2.261 0 00-.932-.653 17.934 17.934 0 00-2.07-.607c-.764-.199-1.727-.453-2.888-.764a6.438 6.438 0 01-1.792-.722 4.412 4.412 0 01-1.119-1.04 3.678 3.678 0 01-.603-1.187 4.965 4.965 0 01-.165-1.28 4.37 4.37 0 01.512-2.166 4.728 4.728 0 011.398-1.527 5.89 5.89 0 011.956-.887 8.472 8.472 0 014.657.05 5.683 5.683 0 012.024 1 4.813 4.813 0 011.91 3.958h-2.91c-.077-1.075-.443-1.827-1.097-2.257a4.278 4.278 0 00-2.49-.669c-.353.001-.703.04-1.047.115a2.993 2.993 0 00-.978.351 2.124 2.124 0 00-.764.65 2.097 2.097 0 00.256 2.444c.417.36.911.622 1.444.764l.722.21c.435.111.916.233 1.444.382.527.15 1.039.28 1.527.42.49.142.88.214 1.093.28.51.15.99.386 1.421.698.391.28.73.627 1 1.024.277.362.483.773.608 1.211.145.408.228.836.245 1.268a4.621 4.621 0 01-2.075 4.003 6.32 6.32 0 01-2.127.91 9.758 9.758 0 01-2.422.301 9.929 9.929 0 01-2.674-.347 6.296 6.296 0 01-2.189-1.07 5.234 5.234 0 01-1.49-1.841 6.215 6.215 0 01-.584-2.674l2.91-.004z" fill="#fff"/><path d="M19.228 44.572V24.048" stroke="#fff" stroke-width="1.261" stroke-miterlimit="10" stroke-linecap="round"/></g><defs><clipPath id="clip0_6_147"><path fill="#fff" transform="translate(.128 .342)" d="M0 0h64.938v63.876H0z"/></clipPath></defs></svg>