<svg width="65" height="61" fill="none" xmlns="http://www.w3.org/2000/svg"><g clip-path="url(#clip0_6_109)"><path d="M57.083 37.72c-5.443 7.809-22.956 23.248-24.09 23.198-.774-.035-17.15-13.41-22.9-20.78C4.598 33.085-.565 23.82.688 14.795 1.732 7.258 7.62.61 17.097.929c8.88.299 12.897 8.324 15.273 13.92.07-.177.143-.354.216-.532 1.793-4.328 4.8-8.417 8.908-10.996C48.358-.989 57.91 1.278 62.08 7.968c.49.785.91 1.611 1.26 2.468 3.688 9.142-.934 19.654-6.256 27.285z" fill="#000"/><path d="M46.944 37.286C43.786 41.812 33.63 50.77 32.974 50.74c-.45-.02-9.95-7.776-13.282-12.052-3.187-4.092-6.18-9.462-5.453-14.696.607-4.371 4.019-8.226 9.515-8.041 5.15.174 7.48 4.827 8.858 8.074.04-.104.082-.207.126-.31 1.04-2.51 2.785-4.881 5.163-6.376 3.981-2.5 9.52-1.185 11.938 2.695.284.454.527.933.727 1.43 2.14 5.302-.54 11.399-3.622 15.823z" fill="#1F62C0"/></g><defs><clipPath id="clip0_6_109"><path fill="#fff" transform="translate(.498 .918)" d="M0 0h64.166v60H0z"/></clipPath></defs></svg>