<svg width="70" height="71" fill="none" xmlns="http://www.w3.org/2000/svg"><g clip-path="url(#clip0_6_128)"><path d="M59.562 21.266l-9.05-5.206c-.863 0-1.562-.514-1.562-1.148V2.2c0-.635.699-1.15 1.562-1.15h9.05c.863 0 1.562.515 1.562 1.15v17.91c0 .647-.7 1.156-1.563 1.156z" fill="#000"/><path d="M69.163 27.662c.238.36.354.786.33 1.217a1.894 1.894 0 01-2.73 1.661c-1.002-.46-18.406-13.451-20.965-15.376a2516.9 2516.9 0 01-6.232-4.695l-2.952-2.233-.047-.035a1.634 1.634 0 00-1.819 0L4.217 30.393c-1.26.982-3.17.341-3.668-1.079a2.158 2.158 0 01.74-2.373L33.37 1.264c1.295-.966 3.433-.966 4.734 0l1.746 1.474 4.492 3.796 6.13 5.178 6.665 5.632 6.083 5.14c1.759 1.486 3.536 2.955 5.295 4.444.251.21.47.458.647.734z" fill="#1F62C0"/><path d="M66.343 30.948L36.286 8.689a.995.995 0 00-1.169 0C30.78 11.774 3.925 30.913 3.925 31.345v35.289a3.899 3.899 0 003.9 3.901h20.558v-23.76a1.12 1.12 0 011.12-1.12h11.981a1.12 1.12 0 011.12 1.12v23.76h20.24a3.901 3.901 0 003.9-3.901V31.761c-.138-.289-.258-.528-.4-.813z" fill="#000"/><path d="M41.329 31.589c-1.295 1.855-5.459 5.528-5.727 5.515-.185 0-4.078-3.19-5.446-4.941-1.294-1.677-2.533-3.884-2.235-6.025.248-1.793 1.649-3.372 3.901-3.297 2.11.072 3.066 1.979 3.632 3.31l.051-.127a5.595 5.595 0 012.117-2.613 3.618 3.618 0 014.894 1.105c.117.186.218.382.3.587.886 2.172-.225 4.671-1.487 6.486z" fill="#fff"/><path d="M39.637 56.726a1.237 1.237 0 100-2.473 1.237 1.237 0 000 2.473z" fill="#1F62C0"/></g><defs><clipPath id="clip0_6_128"><path fill="#fff" transform="translate(.423 .535)" d="M0 0h69.076v70H0z"/></clipPath></defs></svg>