<svg width="55" height="72" fill="none" xmlns="http://www.w3.org/2000/svg"><g clip-path="url(#clip0_6_122)"><path d="M29.16 30.68c8.462 0 15.322-6.86 15.322-15.323 0-8.462-6.86-15.322-15.322-15.322-8.463 0-15.323 6.86-15.323 15.322 0 8.463 6.86 15.323 15.323 15.323zm-.103 1.36c-13.627 0-25.822 8.538-25.822 20.236 0 7.55 7.152 13.873 13.974 16.268 12.648 4.434 37.12-1.572 37.747-16.892.478-11.69-12.276-19.612-25.9-19.612z" fill="#000"/><path d="M26.634 31.748c8.462 0 15.322-6.86 15.322-15.322 0-8.463-6.86-15.323-15.322-15.323s-15.322 6.86-15.322 15.323c0 8.462 6.86 15.322 15.322 15.322zm-.104 1.36c-13.624 0-25.82 8.54-25.82 20.239 0 7.548 7.151 13.873 13.974 16.265 12.65 4.434 37.122-1.57 37.747-16.892.478-11.688-12.277-19.612-25.902-19.612z" fill="#1F62C0"/><path d="M31.683 47.052c-1.008 1.447-4.255 4.311-4.466 4.301-.144 0-3.181-2.485-4.247-3.855-1.018-1.309-1.976-3.024-1.744-4.699.202-1.399 1.286-2.63 3.044-2.572 1.646.057 2.39 1.544 2.832 2.582.014-.032.026-.068.04-.098a4.358 4.358 0 011.653-2.04 2.821 2.821 0 013.817.862c.09.146.168.299.232.458.683 1.689-.173 3.646-1.161 5.061z" fill="#fff"/></g><defs><clipPath id="clip0_6_122"><path fill="#fff" transform="translate(.71 .035)" d="M0 0h54.259v71H0z"/></clipPath></defs></svg>