<svg width="38" height="38" fill="none" xmlns="http://www.w3.org/2000/svg"><g clip-path="url(#clip0_64_40)"><path d="M18.95.85a18.46 18.46 0 0113.053 31.51 18.46 18.46 0 01-13.053 5.407v0A18.46 18.46 0 01.493 19.307v0A18.457 18.457 0 0118.95.85v0z" stroke="#000" stroke-width=".087" stroke-miterlimit="10"/><path d="M14.667 28.686c8.703 0 13.468-7.213 13.468-13.468 0-.205 0-.412-.016-.614a9.608 9.608 0 002.365-2.451 9.455 9.455 0 01-2.718.746 4.763 4.763 0 002.083-2.618 9.44 9.44 0 01-3.007 1.147 4.739 4.739 0 00-8.067 4.31 13.45 13.45 0 01-9.751-4.943 4.738 4.738 0 001.465 6.32 4.692 4.692 0 01-2.155-.59v.059a4.738 4.738 0 003.806 4.636 4.743 4.743 0 01-2.139.08 4.746 4.746 0 004.424 3.295 9.48 9.48 0 01-7.004 1.96 13.323 13.323 0 007.246 2.126" fill="#000"/><path d="M18.95.85a18.46 18.46 0 0113.053 31.51 18.46 18.46 0 01-13.053 5.407v0A18.46 18.46 0 01.493 19.307v0A18.457 18.457 0 0118.95.85v0z" stroke="#000" stroke-width=".62" stroke-miterlimit="10"/></g><defs><clipPath id="clip0_64_40"><path fill="#fff" transform="translate(.358 .715)" d="M0 0h37.189v37.189H0z"/></clipPath></defs></svg>