<svg width="38" height="38" fill="none" xmlns="http://www.w3.org/2000/svg"><g clip-path="url(#clip0_64_49)"><path d="M19.06 37.49c10.193 0 18.456-8.264 18.456-18.458C37.516 8.84 29.253.575 19.06.575 8.865.575.602 8.84.602 19.032c0 10.194 8.263 18.457 18.456 18.457z" stroke="#000" stroke-width=".62" stroke-miterlimit="10"/><path fill-rule="evenodd" clip-rule="evenodd" d="M29.418 27.73v-7.206c0-3.853-2.061-5.659-4.81-5.659a4.144 4.144 0 00-3.763 2.078v-1.78h-4.178c.055 1.177 0 12.566 0 12.566h4.178v-7.018c-.016-.345.03-.69.138-1.018a2.281 2.281 0 012.14-1.528c1.515 0 2.117 1.15 2.117 2.84v6.724h4.178zM12.266 13.445c1.456 0 2.365-.966 2.365-2.172 0-1.205-.909-2.171-2.337-2.171-1.428 0-2.364.938-2.364 2.171 0 1.233.908 2.172 2.309 2.172h.027z" fill="#020202"/><path d="M14.356 15.162h-4.178V27.73h4.178V15.162z" fill="#020202"/></g><defs><clipPath id="clip0_64_49"><path fill="#fff" transform="translate(.465 .438)" d="M0 0h37.189v37.189H0z"/></clipPath></defs></svg>