<svg width="584" height="90" fill="none" xmlns="http://www.w3.org/2000/svg"><path d="M583.113 45.115c0 2.818-1.884 5.672-5.727 8.52-3.83 2.84-9.51 5.6-16.874 8.242-14.721 5.28-36.051 10.044-62.443 14.048-52.774 8.006-125.7 12.96-206.263 12.96s-153.488-4.954-206.263-12.96C59.152 71.92 37.822 67.157 23.1 61.877c-7.363-2.642-13.044-5.402-16.874-8.241C2.383 50.786.5 47.933.5 45.116c0-2.818 1.883-5.672 5.726-8.52 3.83-2.84 9.51-5.6 16.874-8.242 14.722-5.28 36.052-10.044 62.443-14.048 52.775-8.006 125.7-12.96 206.263-12.96S445.295 6.3 498.069 14.305c26.392 4.004 47.722 8.768 62.443 14.048 7.364 2.641 13.044 5.401 16.874 8.241 3.843 2.85 5.727 5.703 5.727 8.52z" stroke="#000"/></svg>