<svg width="38" height="38" fill="none" xmlns="http://www.w3.org/2000/svg"><g clip-path="url(#clip0_64_46)"><path d="M16.235 29.212h4.163V19.17h2.775l.366-3.461h-3.141v-1.732c0-.902.086-1.387 1.387-1.387h1.73V9.133h-2.776c-3.33 0-4.493 1.679-4.493 4.501v2.076h-2.079v3.46h2.068v10.042z" fill="#000"/><path d="M18.846 37.627c10.193 0 18.456-8.263 18.456-18.456S29.04.715 18.846.715C8.654.715.391 8.978.391 19.171s8.263 18.456 18.455 18.456z" stroke="#000" stroke-width=".62" stroke-miterlimit="10"/></g><defs><clipPath id="clip0_64_46"><path fill="#fff" transform="translate(.252 .576)" d="M0 0h37.189v37.189H0z"/></clipPath></defs></svg>