<svg width="230" height="151" fill="none" xmlns="http://www.w3.org/2000/svg"><g clip-path="url(#clip0_144_659)"><path d="M228.759 29.866V23.87a.933.933 0 00-.933-.934h-4.896a.93.93 0 01-.911-.743 20.457 20.457 0 00-2.54-6.473.95.95 0 01.181-1.188l3.004-2.67a.93.93 0 00.082-1.318l-3.956-4.505a.932.932 0 00-1.317-.082l-3.382 2.994a.93.93 0 01-1.117.085 20.536 20.536 0 00-6.071-2.641.932.932 0 01-.705-.905V1.52a.933.933 0 00-.933-.933h-7.366a.934.934 0 00-.933.933v4.083a.932.932 0 01-.654.898 20.606 20.606 0 00-6.769 3.303.954.954 0 01-1.169-.051l-3.594-3.175a.934.934 0 00-1.317.083l-3.978 4.502a.955.955 0 00.082 1.32l3.708 3.27a.929.929 0 01.21 1.13 20.526 20.526 0 00-1.905 5.306.931.931 0 01-.914.746h-5.112a.932.932 0 00-.933.934v5.997a.917.917 0 00.272.662.939.939 0 00.661.275h5.334a.93.93 0 01.905.701 20.578 20.578 0 002.203 5.356.93.93 0 01-.184 1.175l-4.251 3.75a.934.934 0 00-.083 1.317l3.969 4.5a.931.931 0 001.317.082l4.515-3.978a.93.93 0 011.13-.083 20.499 20.499 0 005.884 2.683.934.934 0 01.685.902v3.99a.934.934 0 00.934.934h7.347a.934.934 0 00.933-.934v-3.886a.935.935 0 01.702-.905 20.52 20.52 0 005.819-2.48.927.927 0 011.108.096l4.375 3.86a.953.953 0 001.321-.082l3.966-4.499a.95.95 0 00-.083-1.32l-3.911-3.442a.932.932 0 01-.175-1.194 20.45 20.45 0 002.499-5.839.933.933 0 01.905-.704h5.108a.952.952 0 00.933-.937v0z" fill="#000" stroke="#221F20" stroke-width="1.07" stroke-miterlimit="10"/><path d="M202.061 35.533a9.334 9.334 0 009.334-9.334 9.334 9.334 0 10-18.668 0 9.334 9.334 0 009.334 9.334z" fill="#fff" stroke="#221F20" stroke-width=".317" stroke-miterlimit="10"/><path d="M23.469 97.59v.953a.93.93 0 01-.683.899 20.566 20.566 0 00-6.766 3.302.956.956 0 01-1.171-.051l-3.594-3.175a.953.953 0 00-1.32.082l-3.966 4.512a.953.953 0 00.082 1.321l3.709 3.27a.933.933 0 01.21 1.13 20.425 20.425 0 00-1.906 5.306.952.952 0 01-.898.752H2.04a.933.933 0 00-.933.933v6.001a.932.932 0 00.933.933h5.337a.937.937 0 01.905.705 20.473 20.473 0 002.204 5.356.953.953 0 01-.188 1.175l-4.248 3.74a.932.932 0 00-.082 1.318l3.975 4.499a.956.956 0 001.32.082l4.503-3.978a.933.933 0 011.13-.083 20.538 20.538 0 005.886 2.683.954.954 0 01.686.902v3.991a.927.927 0 00.576.863.915.915 0 00.357.07h7.344a.939.939 0 00.672-.266.933.933 0 00.28-.667v-3.877a.929.929 0 01.699-.905 20.472 20.472 0 005.82-2.479.929.929 0 011.108.095l4.378 3.861a.939.939 0 001.028.138.934.934 0 00.29-.221l3.968-4.499a.951.951 0 00-.082-1.321l-3.928-3.451a.928.928 0 01-.175-1.193 20.602 20.602 0 002.5-5.833.933.933 0 01.904-.705h5.105a.933.933 0 00.934-.933v-6.001a.927.927 0 00-.576-.863.934.934 0 00-.358-.07H49.42a.936.936 0 01-.915-.743 20.47 20.47 0 00-2.54-6.474.95.95 0 01.181-1.187l3.03-2.67a.955.955 0 00.082-1.318L45.29 99a.952.952 0 00-1.32-.082l-3.385 2.987a.946.946 0 01-.547.226.944.944 0 01-.574-.14 20.461 20.461 0 00-6.07-2.641.93.93 0 01-.702-.905v-3.969a.932.932 0 00-.952-.933h-7.338a.93.93 0 00-.933.933v3.121" fill="#000"/><path d="M23.469 97.59v.953a.93.93 0 01-.683.899 20.566 20.566 0 00-6.766 3.302.956.956 0 01-1.171-.051l-3.594-3.175a.953.953 0 00-1.32.082l-3.966 4.512a.953.953 0 00.082 1.321l3.709 3.27a.933.933 0 01.21 1.13 20.425 20.425 0 00-1.906 5.306.952.952 0 01-.898.752H2.04a.933.933 0 00-.933.933v6.001a.932.932 0 00.933.933h5.337a.937.937 0 01.905.705 20.473 20.473 0 002.204 5.356.953.953 0 01-.188 1.175l-4.248 3.74a.932.932 0 00-.082 1.318l3.975 4.499a.956.956 0 001.32.082l4.503-3.978a.933.933 0 011.13-.083 20.538 20.538 0 005.886 2.683.954.954 0 01.686.902v3.991a.927.927 0 00.576.863.915.915 0 00.357.07h7.344a.939.939 0 00.672-.266.933.933 0 00.28-.667v-3.877a.929.929 0 01.699-.905 20.472 20.472 0 005.82-2.479.929.929 0 011.108.095l4.378 3.861a.939.939 0 001.028.138.934.934 0 00.29-.221l3.968-4.499a.951.951 0 00-.082-1.321l-3.928-3.451a.928.928 0 01-.175-1.193 20.602 20.602 0 002.5-5.833.933.933 0 01.904-.705h5.105a.933.933 0 00.934-.933v-6.001a.927.927 0 00-.576-.863.934.934 0 00-.358-.07H49.42a.936.936 0 01-.915-.743 20.47 20.47 0 00-2.54-6.474.95.95 0 01.181-1.187l3.03-2.67a.955.955 0 00.082-1.318L45.29 99a.952.952 0 00-1.32-.082l-3.385 2.987a.946.946 0 01-.547.226.944.944 0 01-.574-.14 20.461 20.461 0 00-6.07-2.641.93.93 0 01-.702-.905v-3.969a.932.932 0 00-.952-.933h-7.338a.93.93 0 00-.933.933v3.121" stroke="#221F20" stroke-width="1.07" stroke-miterlimit="10"/><path d="M28.548 128.483a9.332 9.332 0 01-8.624-5.763 9.334 9.334 0 118.624 5.763" fill="#fff"/><path d="M28.548 128.483a9.332 9.332 0 01-8.624-5.763 9.334 9.334 0 118.624 5.763" stroke="#221F20" stroke-width="1.07" stroke-miterlimit="10"/><path d="M121.726 64.05c16.143 0 29.229-13.086 29.229-29.229 0-16.142-13.086-29.228-29.229-29.228-16.142 0-29.228 13.086-29.228 29.228 0 16.143 13.086 29.229 29.228 29.229zm.001 74.867c25.58 0 46.317-16.204 46.317-36.193 0-19.99-20.737-36.194-46.317-36.194-25.58 0-46.318 16.204-46.318 36.194 0 19.989 20.737 36.193 46.318 36.193z" fill="#3361BB"/><path d="M40.144 102.086c12.045-15.874 33.066-33.067 59.53-47.522" stroke="#010101" stroke-width=".635" stroke-miterlimit="10" stroke-linecap="round"/><path d="M28.91 128.403c0-7.724 4.001-16.785 11.234-26.317" stroke="#010101" stroke-width=".81" stroke-miterlimit="10" stroke-linecap="round"/><path d="M223.184 44.026c4.648 21.59-28.352 57.07-77.627 82.18-50.072 25.517-98.93 31.14-112.799 13.694" stroke="#010101" stroke-width=".635" stroke-miterlimit="10" stroke-linecap="round"/><path d="M219.781 36.81c.731.913 1.37 1.898 1.905 2.94.146.288.285.58.416.879" stroke="#010101" stroke-width=".81" stroke-miterlimit="10" stroke-linecap="round"/><path d="M192.625 26.774c7.302.159 12.804 1.27 17.853 3.365m-59.447 2.911c8.81-2.54 15.922-4.314 23.647-5.32M25.933 93.504C38.086 75.817 62.2 56.078 92.565 40.165m118.034 5.131c-7.007 21.1-36.337 48.418-76.456 68.864-36.016 18.355-71.404 26.416-93.593 23.003M197.829 17.748c5.93 2.143 10.051 5.292 12.429 9.956.27.528.511 1.07.724 1.622m-64.397-10.172c13.195-3.286 25.206-4.763 35.242-4.385" stroke="#010101" stroke-width=".635" stroke-miterlimit="10" stroke-linecap="round"/><path d="M221.605 28.938v-4.41a.702.702 0 00-.687-.7h-3.602a.686.686 0 01-.67-.547 15.072 15.072 0 00-1.869-4.763.686.686 0 01.134-.871l2.226-1.964a.699.699 0 00.06-.972l-2.927-3.291a.68.68 0 00-.472-.231.683.683 0 00-.497.17l-2.492 2.198a.683.683 0 01-.822.065 15.102 15.102 0 00-4.466-1.943.7.7 0 01-.519-.666V8.084a.696.696 0 00-.201-.485.694.694 0 00-.486-.202h-5.405a.69.69 0 00-.634.424.678.678 0 00-.053.263v3.006a.682.682 0 01-.499.661 15.15 15.15 0 00-4.98 2.427.683.683 0 01-.862-.037l-2.644-2.336a.697.697 0 00-.498-.171.682.682 0 00-.472.232l-2.92 3.31a.693.693 0 00-.101.756.67.67 0 00.162.213l2.728 2.413a.68.68 0 01.155.832 15.188 15.188 0 00-1.402 3.903.688.688 0 01-.673.546h-3.756a.689.689 0 00-.686.701v4.398a.68.68 0 00.42.648.684.684 0 00.266.053h3.925a.682.682 0 01.665.516c.354 1.377.9 2.697 1.621 3.922a.688.688 0 01-.135.864l-3.128 2.759a.687.687 0 00-.061.97l2.92 3.31a.689.689 0 00.97.06l3.321-2.93a.702.702 0 01.832-.058 15.07 15.07 0 004.323 1.983.684.684 0 01.505.662v2.938a.686.686 0 00.686.687h5.406a.686.686 0 00.686-.687v-2.85a.69.69 0 01.517-.665c1.513-.384 2.957-1 4.281-1.827a.702.702 0 01.815.07l3.221 2.838a.702.702 0 00.972-.06l2.917-3.31a.694.694 0 00.172-.498.688.688 0 00-.232-.472l-2.878-2.539a.683.683 0 01-.128-.878 15.1 15.1 0 001.838-4.298.697.697 0 01.666-.519h3.758a.69.69 0 00.637-.425.684.684 0 00.052-.264v0z" stroke="#fff" stroke-miterlimit="10"/><circle cx="28.548" cy="119.148" r="14.789" stroke="#fff"/></g><defs><clipPath id="clip0_144_659"><path fill="#fff" transform="translate(.574 .05)" d="M0 0h228.721v150.672H0z"/></clipPath></defs></svg>