<svg width="270" height="274" fill="none" xmlns="http://www.w3.org/2000/svg"><path d="M120.088 138.099c-10.821 19.213-18.086 37.477-21.094 51.469-1.504 6.999-1.937 12.903-1.234 17.313.705 4.425 2.533 7.243 5.43 8.262 2.896 1.02 6.769.208 11.4-2.339 4.617-2.538 9.877-6.743 15.45-12.31 11.142-11.129 23.451-27.619 34.272-46.831 10.821-19.212 18.086-37.477 21.094-51.469 1.504-7 1.937-12.903 1.234-17.313-.705-4.424-2.533-7.242-5.43-8.262-2.896-1.02-6.769-.207-11.4 2.339-4.617 2.538-9.877 6.743-15.45 12.31-11.142 11.13-23.451 27.619-34.272 46.831z" stroke="#000" stroke-width=".952"/><path d="M105.061 119.66c-10.82 19.212-18.086 37.477-21.093 51.469-1.504 6.999-1.938 12.903-1.235 17.313.706 4.424 2.534 7.242 5.43 8.262 2.897 1.019 6.77.207 11.4-2.339 4.617-2.538 9.878-6.743 15.451-12.31 11.142-11.13 23.451-27.619 34.272-46.832 10.821-19.212 18.086-37.477 21.093-51.469 1.505-6.999 1.938-12.902 1.235-17.313-.705-4.424-2.533-7.242-5.43-8.261-2.897-1.02-6.769-.208-11.4 2.338-4.617 2.539-9.877 6.744-15.451 12.31-11.141 11.13-23.451 27.62-34.272 46.832z" stroke="#000" stroke-width=".952"/><path d="M112.875 129.249c-10.82 19.212-18.086 37.477-21.093 51.469-1.504 6.999-1.938 12.902-1.235 17.313.706 4.424 2.534 7.242 5.43 8.261 2.897 1.02 6.77.208 11.401-2.338 4.616-2.539 9.877-6.744 15.45-12.311 11.142-11.129 23.451-27.619 34.272-46.831 10.821-19.212 18.086-37.477 21.093-51.469 1.505-6.999 1.938-12.903 1.235-17.313-.705-4.424-2.533-7.242-5.43-8.262-2.897-1.02-6.769-.207-11.4 2.339-4.617 2.538-9.877 6.743-15.451 12.31-11.141 11.13-23.451 27.619-34.272 46.832z" stroke="#000" stroke-width=".952"/><path d="M139.318 108.966c-21.038-6.621-40.688-9.463-55.442-8.72-7.379.371-13.508 1.639-17.97 3.758-4.464 2.121-7.203 5.066-7.934 8.761-.73 3.696.59 7.918 3.741 12.435 3.15 4.515 8.088 9.265 14.464 13.965 12.748 9.398 31.153 18.53 52.192 25.151 21.038 6.62 40.687 9.463 55.442 8.72 7.379-.372 13.508-1.639 17.97-3.759 4.464-2.121 7.203-5.065 7.934-8.761.731-3.695-.59-7.917-3.741-12.435-3.15-4.515-8.088-9.265-14.464-13.965-12.748-9.397-31.153-18.53-52.192-25.15z" stroke="#000" stroke-width=".952"/><path d="M140.434 121.093c-21.032-6.645-40.671-9.509-55.415-8.781-7.374.365-13.497 1.626-17.954 3.743-4.459 2.117-7.193 5.06-7.92 8.756-.726 3.697.598 7.922 3.752 12.445 3.152 4.52 8.092 9.277 14.468 13.986 12.75 9.415 31.152 18.571 52.184 25.216 21.031 6.645 40.67 9.509 55.414 8.781 7.374-.364 13.497-1.626 17.954-3.742 4.459-2.118 7.193-5.061 7.92-8.757.726-3.697-.598-7.922-3.752-12.445-3.152-4.52-8.092-9.277-14.468-13.986-12.75-9.415-31.152-18.571-52.183-25.216z" stroke="#000" stroke-width=".952"/><path d="M140.425 97.722c-21.038-6.62-40.688-9.463-55.442-8.72-7.38.372-13.508 1.64-17.97 3.76-4.464 2.12-7.203 5.065-7.934 8.76-.73 3.696.59 7.918 3.741 12.435 3.15 4.515 8.088 9.265 14.464 13.965 12.748 9.398 31.153 18.53 52.192 25.151 21.038 6.62 40.687 9.463 55.442 8.72 7.379-.372 13.508-1.639 17.97-3.759 4.464-2.121 7.202-5.066 7.934-8.761.731-3.696-.591-7.918-3.741-12.435-3.15-4.515-8.088-9.265-14.464-13.965-12.748-9.398-31.153-18.53-52.192-25.15z" stroke="#000" stroke-width=".952"/><ellipse rx="2.306" ry="2.309" transform="scale(-1 1) rotate(34.652 -232.666 -152.362)" fill="#15326C"/><ellipse rx="2.306" ry="2.309" transform="scale(-1 1) rotate(34.652 -360.3 -117.266)" fill="#15326C"/><ellipse rx="2.306" ry="2.309" transform="scale(-1 1) rotate(34.652 -184.758 -52.256)" fill="#15326C"/></svg>