<svg width="382" height="26" fill="none" xmlns="http://www.w3.org/2000/svg"><path d="M380.778 13.173c0 .043-.043.285-.649.686-.568.377-1.463.777-2.709 1.187-2.483.816-6.182 1.614-10.995 2.38-9.616 1.529-23.552 2.91-40.798 4.07-34.486 2.32-82.14 3.755-134.785 3.755-52.645 0-100.299-1.436-134.784-3.756-17.247-1.16-31.183-2.54-40.798-4.07-4.814-.765-8.513-1.563-10.995-2.38-1.246-.409-2.141-.809-2.71-1.186-.606-.401-.648-.643-.648-.686 0-.043.042-.285.648-.686.569-.377 1.464-.777 2.71-1.187 2.482-.816 6.181-1.614 10.995-2.38 9.615-1.529 23.551-2.91 40.798-4.07 34.485-2.32 82.139-3.755 134.784-3.755 52.645 0 100.299 1.436 134.785 3.756 17.246 1.16 31.182 2.54 40.798 4.07 4.813.765 8.512 1.563 10.995 2.38 1.246.409 2.141.81 2.709 1.186.606.401.649.643.649.686z" stroke="#F5EDE3" stroke-width="1.5"/></svg>