<svg width="693" height="79" fill="none" xmlns="http://www.w3.org/2000/svg"><path d="M692.309 39.714c0 1.195-.532 2.42-1.659 3.679-1.13 1.262-2.835 2.53-5.113 3.792-4.556 2.526-11.307 4.977-20.048 7.321-17.472 4.685-42.778 8.91-74.076 12.46-62.589 7.099-149.069 11.49-244.6 11.49-95.532 0-182.011-4.392-244.6-11.49-31.298-3.55-56.604-7.775-74.077-12.46-8.74-2.344-15.492-4.795-20.048-7.32-2.278-1.263-3.983-2.531-5.113-3.793-1.127-1.26-1.658-2.484-1.658-3.679 0-1.195.531-2.42 1.658-3.679 1.13-1.262 2.835-2.53 5.113-3.792 4.556-2.526 11.308-4.977 20.048-7.32 17.473-4.686 42.78-8.91 74.077-12.46C164.802 5.362 251.281.971 346.813.971c95.531 0 182.011 4.392 244.6 11.49 31.298 3.55 56.604 7.775 74.076 12.46 8.741 2.344 15.492 4.796 20.048 7.32 2.278 1.263 3.983 2.531 5.113 3.793 1.127 1.26 1.659 2.484 1.659 3.68z" stroke="#000"/></svg>