<svg width="73" height="62" fill="none" xmlns="http://www.w3.org/2000/svg"><path d="M31.374 56.029c13.606 1.787 26.065-7.93 27.828-21.706 1.763-13.775-7.838-26.39-21.444-28.179C24.152 4.357 11.693 14.074 9.93 27.85c-1.763 13.775 7.838 26.39 21.444 28.178z" stroke="#fff" stroke-width=".755" stroke-miterlimit="10"/><path d="M57.318 41.213c2.916 6.08 3.63 10.888 1.443 12.907-4.247 3.924-17.827-4.146-30.333-18.016C15.92 22.234 9.225 7.803 13.47 3.879c2.3-2.123 7.333-.735 13.448 3.185" stroke="#fff" stroke-width=".755" stroke-miterlimit="10"/><path d="M59.123 35.66c2.533 5.281 3.154 9.455 1.254 11.209-3.687 3.407-15.481-3.597-26.342-15.645C23.174 19.175 17.36 6.646 21.049 3.239c1.995-1.844 6.366-.639 11.673 2.765" stroke="#fff" stroke-width=".755" stroke-miterlimit="10"/><path d="M20.83 10.148c-5.696-3.36-10.303-4.424-12.467-2.396-4.295 4.028 2.676 18.718 15.57 32.811C36.826 54.656 50.76 62.818 55.056 58.79c2.064-1.935 1.526-6.333-1.02-11.944" stroke="#fff" stroke-width=".755" stroke-miterlimit="10"/><path d="M59.246 34.255c7.44-3.134 11.921-6.484 11.392-9.076-.931-4.565-17.03-5.057-35.956-1.106-18.926 3.95-33.52 10.86-32.59 15.424.455 2.222 4.504 3.48 10.725 3.73" stroke="#fff" stroke-width=".755" stroke-miterlimit="10"/><path d="M58.261 23.554c2.599-1.665 3.97-3.281 3.691-4.648-.785-3.852-14.369-4.27-30.34-.933C15.643 21.31 3.335 27.137 4.12 30.988c.296 1.448 2.4 2.411 5.758 2.872m48.806 3.269c4.33-2.192 6.785-4.408 6.42-6.19-.295-1.445-2.389-2.407-5.734-2.868" stroke="#fff" stroke-width=".755" stroke-miterlimit="10"/><path d="M59.37 28.076c-5.575-.77-14.623-.153-24.605 1.932C18.797 33.343 6.487 39.17 7.274 43.022c.344 1.664 3.066 2.686 7.342 3.043" stroke="#fff" stroke-width=".755" stroke-miterlimit="10"/><path d="M56.718 42.502c3.29-1.762 5.127-3.563 4.842-5.09-.653-3.503-12.227-4.235-25.85-1.635-13.624 2.6-24.145 7.547-23.492 11.05.262 1.43 2.355 2.4 5.663 2.869" stroke="#fff" stroke-width=".755" stroke-miterlimit="10"/><circle cx="13.369" cy="4.109" fill="#fff" r="1.201"/><ellipse cx="41.913" cy="16.212" rx="1.2" ry="1.201" fill="#fff"/><ellipse cx="41.2" cy="48.203" rx="1.2" ry="1.201" fill="#fff"/><ellipse cx="17.344" cy="41.595" rx="1.2" ry="1.201" fill="#fff"/></svg>