<svg width="307" height="28" fill="none" xmlns="http://www.w3.org/2000/svg"><path d="M305.986 13.873c0 .275-.153.62-.623 1.038-.467.415-1.192.848-2.19 1.287-1.993.879-4.962 1.737-8.826 2.561-7.721 1.646-18.911 3.132-32.761 4.38-27.695 2.498-65.965 4.044-108.245 4.044s-80.55-1.546-108.245-4.043c-13.85-1.249-25.04-2.735-32.761-4.38-3.864-.825-6.833-1.683-8.826-2.562-.998-.44-1.723-.872-2.19-1.287-.47-.417-.623-.763-.623-1.038s.153-.621.623-1.038c.467-.415 1.192-.848 2.19-1.288 1.993-.878 4.962-1.737 8.826-2.56 7.72-1.647 18.91-3.132 32.76-4.381C72.792 2.108 111.062.563 153.342.563s80.55 1.545 108.245 4.043c13.85 1.249 25.04 2.734 32.761 4.38 3.864.824 6.833 1.683 8.826 2.561.998.44 1.723.873 2.19 1.288.47.417.623.763.623 1.038z" stroke="#000"/></svg>