<svg width="546" height="119" fill="none" xmlns="http://www.w3.org/2000/svg"><path d="M545.518 59.423c0 3.911-1.831 7.776-5.412 11.56-3.584 3.787-8.893 7.462-15.772 10.979-13.757 7.032-33.695 13.379-58.372 18.714-49.346 10.669-117.54 17.272-192.881 17.272s-143.535-6.603-192.88-17.272c-24.678-5.335-44.616-11.682-58.372-18.714-6.88-3.517-12.188-7.192-15.772-10.979C2.475 67.2.644 63.334.644 59.423c0-3.912 1.831-7.777 5.413-11.561C9.64 44.075 14.95 40.4 21.829 36.883 35.585 29.851 55.523 23.504 80.2 18.17 129.546 7.499 197.74.897 273.081.897S416.616 7.5 465.962 18.169c24.677 5.335 44.615 11.682 58.372 18.714 6.879 3.517 12.188 7.192 15.772 10.979 3.581 3.784 5.412 7.649 5.412 11.56z" stroke="#000" stroke-width=".964"/></svg>