<svg width="41" height="38" fill="none" xmlns="http://www.w3.org/2000/svg"><path d="M24.692 18.833c0 4.992-1.334 9.499-3.478 12.751-2.146 3.254-5.081 5.226-8.289 5.226-3.208 0-6.143-1.972-8.289-5.226-2.144-3.252-3.478-7.76-3.478-12.75 0-4.992 1.334-9.5 3.478-12.752C6.782 2.828 9.717.856 12.925.856c3.208 0 6.143 1.972 8.289 5.226 2.144 3.253 3.479 7.76 3.479 12.751z" stroke="#000" stroke-width=".5"/><path d="M31.743 18.833c0 4.992-1.335 9.499-3.479 12.751-2.145 3.254-5.081 5.226-8.289 5.226-3.207 0-6.143-1.972-8.289-5.226-2.144-3.252-3.478-7.76-3.478-12.75 0-4.992 1.334-9.5 3.478-12.752 2.146-3.254 5.082-5.226 8.29-5.226 3.207 0 6.143 1.972 8.288 5.226 2.144 3.253 3.479 7.76 3.479 12.751z" stroke="#000" stroke-width=".5"/><path d="M40.395 18.833c0 4.992-1.334 9.499-3.478 12.751-2.146 3.254-5.082 5.226-8.29 5.226-3.207 0-6.142-1.972-8.288-5.226-2.144-3.252-3.479-7.76-3.479-12.75 0-4.992 1.335-9.5 3.479-12.752C22.485 2.828 25.42.856 28.628.856c3.207 0 6.143 1.972 8.289 5.226 2.144 3.253 3.478 7.76 3.478 12.751z" stroke="#000" stroke-width=".5"/></svg>