<svg width="48" height="38" fill="none" xmlns="http://www.w3.org/2000/svg"><path d="M46.83 27.947c0 1.165-.606 2.301-1.76 3.363-1.156 1.062-2.841 2.03-4.945 2.848-4.205 1.636-10.032 2.652-16.481 2.652-6.449 0-12.276-1.017-16.481-2.652-2.104-.818-3.789-1.786-4.944-2.848C1.064 30.248.458 29.112.458 27.947s.606-2.302 1.76-3.364c1.156-1.062 2.841-2.03 4.945-2.847 4.205-1.636 10.032-2.653 16.481-2.653 6.449 0 12.276 1.017 16.481 2.653 2.104.818 3.789 1.785 4.944 2.847 1.155 1.062 1.761 2.2 1.761 3.364z" stroke="#000" stroke-width=".5"/><path d="M46.83 18.833c0 1.165-.606 2.302-1.76 3.364-1.156 1.062-2.841 2.03-4.945 2.848-4.205 1.635-10.032 2.652-16.481 2.652-6.449 0-12.276-1.017-16.481-2.652-2.104-.819-3.789-1.786-4.944-2.848C1.064 21.135.458 19.998.458 18.833c0-1.164.606-2.301 1.76-3.363 1.156-1.062 2.841-2.03 4.945-2.848 4.205-1.635 10.032-2.652 16.481-2.652 6.449 0 12.276 1.017 16.481 2.652 2.104.818 3.789 1.786 4.944 2.848 1.155 1.062 1.761 2.199 1.761 3.363z" stroke="#000" stroke-width=".5"/><path d="M46.83 9.72c0 1.164-.606 2.301-1.76 3.363-1.156 1.062-2.841 2.03-4.945 2.848-4.205 1.635-10.032 2.652-16.481 2.652-6.449 0-12.276-1.017-16.481-2.652-2.104-.818-3.789-1.786-4.944-2.848C1.064 12.021.458 10.884.458 9.72c0-1.165.606-2.302 1.76-3.364C3.375 5.294 5.06 4.326 7.164 3.51 11.368 1.873 17.195.856 23.644.856S35.92 1.873 40.125 3.509c2.104.818 3.789 1.785 4.944 2.847 1.155 1.062 1.761 2.199 1.761 3.364z" stroke="#000" stroke-width=".5"/></svg>