<svg width="48" height="45" fill="none" xmlns="http://www.w3.org/2000/svg"><path d="M18.62 17.957c-4.928 2.95-8.924 6.142-11.402 8.911-1.24 1.386-2.09 2.653-2.493 3.722-.406 1.077-.337 1.891.134 2.435.47.543 1.378.855 2.735.876 1.347.021 3.063-.247 5.037-.785 3.945-1.077 8.854-3.216 13.782-6.166 4.928-2.95 8.924-6.142 11.402-8.91 1.24-1.387 2.09-2.654 2.493-3.723.406-1.077.337-1.89-.133-2.434-.472-.544-1.378-.856-2.736-.877-1.347-.021-3.063.247-5.037.785-3.945 1.077-8.853 3.216-13.782 6.166z" stroke="#000" stroke-width=".587"/><path d="M22.01 20.428c-4.916 2.973-8.896 6.183-11.362 8.964-1.234 1.391-2.078 2.663-2.476 3.733-.4 1.08-.328 1.893.145 2.434.474.542 1.382.85 2.74.864 1.347.015 3.061-.26 5.033-.809 3.94-1.095 8.838-3.256 13.753-6.23 4.914-2.972 8.895-6.182 11.361-8.963 1.234-1.391 2.078-2.663 2.475-3.733.401-1.08.33-1.893-.144-2.434-.474-.542-1.382-.849-2.74-.864-1.347-.015-3.061.26-5.033.809-3.94 1.095-8.838 3.256-13.753 6.23z" stroke="#000" stroke-width=".587"/><path d="M18.212 24.061c.168 5.742 1.002 10.787 2.208 14.302.604 1.76 1.295 3.12 2.031 3.993.742.88 1.485 1.218 2.19 1.072.704-.145 1.42-.784 2.1-1.959.677-1.165 1.28-2.793 1.775-4.78.987-3.967 1.517-9.295 1.35-15.036-.169-5.742-1.003-10.787-2.21-14.302-.603-1.76-1.294-3.12-2.03-3.993-.742-.88-1.485-1.218-2.19-1.073-.704.146-1.419.785-2.1 1.96-.677 1.165-1.28 2.793-1.775 4.779-.987 3.968-1.517 9.296-1.349 15.037z" stroke="#000" stroke-width=".587"/></svg>