<svg width="81" height="80" fill="none" xmlns="http://www.w3.org/2000/svg"><path d="M35.75 41.468c-1.931 6.247-2.868 12.051-2.828 16.382.02 2.167.285 3.948.78 5.227.498 1.286 1.206 2.011 2.072 2.183.866.172 1.914-.206 3.103-1.157 1.184-.947 2.455-2.424 3.735-4.333 2.558-3.815 5.11-9.3 7.041-15.546 1.93-6.247 2.867-12.051 2.827-16.381-.02-2.168-.285-3.949-.78-5.228-.498-1.286-1.205-2.011-2.071-2.183-.867-.171-1.915.206-3.104 1.157-1.183.947-2.455 2.424-3.735 4.333-2.558 3.816-5.11 9.3-7.04 15.546z" stroke="#000" stroke-width=".587"/><path d="M31.157 36.485c-1.931 6.246-2.868 12.05-2.828 16.38.02 2.168.285 3.949.78 5.229.498 1.285 1.205 2.01 2.072 2.182.866.172 1.914-.205 3.103-1.157 1.184-.947 2.455-2.423 3.735-4.333 2.558-3.815 5.11-9.3 7.041-15.546 1.93-6.247 2.867-12.05 2.827-16.381-.02-2.167-.285-3.948-.78-5.228-.498-1.286-1.205-2.01-2.071-2.183-.867-.171-1.915.206-3.104 1.157-1.183.947-2.455 2.424-3.735 4.333-2.558 3.816-5.11 9.3-7.04 15.547z" stroke="#000" stroke-width=".587"/><path d="M39.51 31.91c-6.709-.565-12.667-.1-16.874 1.1-2.105.6-3.757 1.38-4.847 2.295-1.092.915-1.59 1.938-1.476 3.024.115 1.085.842 2.212 2.149 3.329 1.305 1.115 3.153 2.19 5.424 3.157 4.54 1.936 10.704 3.42 17.413 3.985 6.71.564 12.667.098 16.875-1.102 2.105-.6 3.757-1.38 4.847-2.294 1.091-.915 1.59-1.938 1.475-3.024-.115-1.086-.842-2.212-2.148-3.329-1.305-1.115-3.154-2.19-5.425-3.158-4.54-1.935-10.704-3.42-17.413-3.984z" stroke="#000" stroke-width=".587"/></svg>