<svg width="184" height="144" fill="none" xmlns="http://www.w3.org/2000/svg"><path d="M168.654 91.172c-3.847 9.224-14.828 14.521-29.604 15.544-14.76 1.021-33.224-2.232-51.887-10.014-18.662-7.783-33.967-18.612-43.628-29.817-9.672-11.218-13.637-22.747-9.79-31.971 3.846-9.224 14.828-14.52 29.604-15.544 14.76-1.021 33.224 2.232 51.887 10.014 18.662 7.783 33.967 18.612 43.628 29.817 9.672 11.218 13.637 22.747 9.79 31.971z" stroke="#000" stroke-width=".5"/><path d="M158.252 100.308c-3.847 9.224-14.828 14.52-29.605 15.543-14.759 1.022-33.223-2.231-51.886-10.013-18.663-7.783-33.968-18.612-43.628-29.817-9.672-11.218-13.637-22.748-9.79-31.972 3.846-9.224 14.827-14.52 29.604-15.543 14.76-1.022 33.224 2.231 51.886 10.014 18.663 7.782 33.968 18.611 43.629 29.817 9.671 11.218 13.636 22.747 9.79 31.971z" stroke="#000" stroke-width=".5"/><path d="M149.929 109.814c-3.847 9.224-14.828 14.521-29.604 15.544-14.76 1.022-33.224-2.231-51.887-10.014-18.663-7.783-33.967-18.612-43.628-29.817-9.672-11.218-13.637-22.747-9.79-31.971 3.846-9.224 14.828-14.52 29.604-15.544 14.76-1.021 33.224 2.232 51.886 10.014 18.663 7.783 33.968 18.612 43.629 29.817 9.672 11.218 13.636 22.747 9.79 31.971z" stroke="#000" stroke-width=".5"/></svg>