<svg width="157" height="209" fill="none" xmlns="http://www.w3.org/2000/svg"><g clip-path="url(#clip0_144_567)"><path d="M110.518 96.35c3.54 1.332 5.585 2.908 5.585 4.593 0 4.796-16.527 8.681-36.914 8.681-20.386 0-36.913-3.885-36.913-8.689 0-2.647 3.59-4.621 11.518-6.214m8.926-1.549a142.99 142.99 0 0116.47-.91c13.203 0 24.808 1.632 31.329 4.088" stroke="#221F20" stroke-width=".424" stroke-miterlimit="10"/><path d="M79.993 109.68c-18.976 0-35.722-2.658-37.776-8.619a.03.03 0 00-.03-.022.03.03 0 00-.029.022l-.09 84.249a4.838 4.838 0 004.84 4.843h64.563a4.917 4.917 0 004.922-4.927l-.16-83.907a.052.052 0 00-.009-.034.047.047 0 00-.029-.018.046.046 0 00-.034.008.044.044 0 00-.018.03c-2.04 5.374-17.288 8.375-36.15 8.375z" fill="#221F20"/><path d="M80.257 117.883c-5.281-18.732 1.599-35.959 15.912-48.019m-20.137 56.23c-1.348-10.745-1.536-21.69-.946-32.474a63.909 63.909 0 011.52-10.26c1.578-7.183 3.876-14.285 4.671-21.564.453-4.132.028-10.731-6.461-11.436M58.741 96.684l15.934 11.47" stroke="#221F20" stroke-width=".843" stroke-linecap="round" stroke-linejoin="round"/><path d="M135.183 32.591l-1.921-.076a1.431 1.431 0 00-1.478 1.178c-.503 2.946-1.604 6.489-3.129 7.236-.281.13-1.461.714-2.529.222-1.224-.562-1.876-3.107-2.059-5.663a2.792 2.792 0 00-2.632-2.616 302.461 302.461 0 00-5.543-.23 2.77 2.77 0 00-2.809 2.298c-.421 2.444-.719 5.085-.798 5.41-.812 3.391-4.517 9.226-7.405 4.67-1.065-1.686-1.068-4.695-.685-7.718a2.698 2.698 0 00-.724-2.234 2.692 2.692 0 00-2.201-.822c-10.2 1.149-15.355 8.076-17.417 15.302-2.138 7.48 1.753 21.454 8.273 19.564 2.871-.843 3.306.387 3.837-.068 6.156-5.262 13.094-10.619 23.576-15.852 12.329-6.158 14.08-7.282 15.731-6.268.812.503-3.25.388-21.372 10.824-6.462 3.725-12.361 8.745-16.743 12.456-.764.644.334 1.81-.866 5.113-1.034 2.852 2.942 7.824 4.964 10.113 5.057 5.692 12.971 6.53 19.665 3.4l.419-.197c2.385-1.124 2.399-2.964.028-4.104-4.695-2.248-11.622-5.425-11.411-6.231.21-.806 1.429-1.175 1.882-1.304 2.286-.649 7.683 1.793 12.425 4.338a4.87 4.87 0 005.402-.559 4.87 4.87 0 001.2-1.484 25.264 25.264 0 002.666-8.169c.059-.396.129-.792.208-1.185a1.46 1.46 0 00-.458-1.346 31.485 31.485 0 01-4.321-4.795c-.93-1.281-2.365-6.068 1.806-5.745 1.734.135 5.338 4.933 7.866 6.326a1.423 1.423 0 001.225.084c10.793-4.377 15.296-21.662 16.454-27.042a1.436 1.436 0 00-1.264-1.725c-6.65-.631-13.209-2.865-19.862-3.1z" fill="#3361BB"/><path d="M9.517 29.985c.374.721.737 1.448 1.09 2.18a1.815 1.815 0 002.213.924c3.585-1.241 8.195-2.185 9.959-.946.309.219 1.686 1.188 1.784 2.66.115 1.71-2.306 3.986-5.037 5.753a3.543 3.543 0 00-1.3 4.526 410.948 410.948 0 003.134 6.304 3.509 3.509 0 004.273 1.72c2.975-1.023 6.096-2.307 6.504-2.42 4.267-1.17 13.02-.617 9.722 5.38-1.216 2.208-4.57 4.057-8.146 5.478-2.048.812-2.886 3.324-1.613 5.122 7.515 10.638 18.367 12.133 27.666 10.014 9.627-2.194 22.783-15.066 16.695-21.159-2.683-2.685-1.593-3.913-2.422-4.214-9.616-3.63-19.813-8.068-32.042-16.52-14.383-9.945-16.704-11.201-16.575-13.648.062-1.208 2.422 3.371 25.104 17.136 8.099 4.916 17.274 8.383 24.086 11.001 1.186.453 1.81-1.48 6.215-2.166 3.8-.595 6.902-8.057 8.2-11.697 3.242-9.094-.672-18.418-8.248-23.952l-.506-.345c-2.697-1.967-4.776-.843-4.582 2.48.36 6.599 1.079 16.238.05 16.496-1.028.258-2.176-.87-2.598-1.295-2.12-2.146-2.705-9.642-2.775-16.47a6.18 6.18 0 00-6.307-6.088c-3.661.06-7.285.747-10.715 2.03-.474.178-.957.34-1.446.495a1.835 1.835 0 00-1.214 1.332 40.174 40.174 0 01-2.691 7.736c-.857 1.818-5.301 6.34-7.49 1.503-.913-2.011 2.22-8.953 2.228-12.6a1.822 1.822 0 00-.652-1.404C30.611-3.993 8.651 1.57 1.951 3.573a1.812 1.812 0 00-1.143 2.46c3.374 7.748 4.902 16.41 8.709 23.952zm36.619 58.887c-7.979-5.546-16.22-8.012-15.948-8.605.143-.315 2.27.393 2.97.626 9.197 3.068 23.395 12.26 29.477 17.252 1.123-2.135-1.158-5.427-5.414-9.487-2.014.464-4.495.174-6.18-1.087-.281-.208-1.967-1.48-1.91-3.228a3.388 3.388 0 01.575-1.685 83.38 83.38 0 00-6.59-4.094c-12.802-7.183-24.904-9.88-27.03-6.02-1.06 1.922.561 5.108 4.03 8.709.05-.5.145-.996.282-1.48.825-2.84 3.11-4.01 4.23-2.672 1.163 1.388 1.183 5.618.197 8.383a77.873 77.873 0 008.461 5.815c.91-2.568 3.04-3.58 4.11-2.304.748.894 1.02 2.961.843 5.057 10.34 5.318 19.665 7.894 23.092 5.88-3.124-2.17-7.613-5.793-15.195-11.06z" fill="#3361BB"/><path d="M54.536 165.21h9.18a1.516 1.516 0 011.514 1.514v21.912H52.958v-21.847a1.58 1.58 0 011.579-1.579zm20.257-11.417h9.552a1.328 1.328 0 011.22.816c.066.16.1.331.1.505v33.528H73.38v-33.43a1.41 1.41 0 01.87-1.313c.172-.071.357-.107.543-.106zm20.629-11.899h9.495a1.325 1.325 0 011.326 1.326v45.422h-12.27v-45.288a1.448 1.448 0 01.892-1.348 1.44 1.44 0 01.557-.112z" fill="#fff"/><path d="M52.957 152.213c8.506-1.281 22.631-4.975 32.33-16.798a39.457 39.457 0 002.324-3.127" stroke="#fff" stroke-width=".466" stroke-linecap="round" stroke-linejoin="round"/><path d="M88.641 136.346l-.765.097-.457-3.919-3.732.761-.148-.786 4.544-.926.558 4.773z" fill="#fff"/><path d="M110.145 163.409c19.516 11.799 30.859 25.185 27.421 34.554-4.942 13.484-38.543 13.532-75.055.14C26 184.712.41 162.94 5.351 149.47c3.068-8.361 20.643-11.555 39.633-9.574" stroke="#221F20" stroke-miterlimit="10"/><path d="M44.54 181.577c-23.198-12.557-37.733-28.163-33.935-38.473 3.88-10.579 25.44-12.889 52.204-6.905m44.394 16.853c25.157 12.872 39.56 27.755 35.599 38.548-4.939 13.485-47.878 12.878-79.502-1.843" stroke="#221F20" stroke-miterlimit="10"/><path d="M97.04 129.098c0 .493.083.913.251 1.262.169.348.403.636.703.865.3.216.643.378 1.027.486.397.096.823.144 1.279.144.493 0 .913-.054 1.262-.162.348-.12.63-.27.847-.45.216-.181.372-.385.468-.613.096-.24.144-.48.144-.721 0-.492-.114-.853-.342-1.081a1.798 1.798 0 00-.721-.504 13.867 13.867 0 00-1.603-.469c-.601-.156-1.346-.354-2.235-.594-.552-.145-1.015-.331-1.387-.559a3.456 3.456 0 01-.865-.793 2.887 2.887 0 01-.468-.919 3.926 3.926 0 01-.127-.991c0-.648.133-1.207.397-1.675a3.66 3.66 0 011.08-1.189 4.559 4.559 0 011.514-.685 6.4 6.4 0 011.712-.234c.673 0 1.303.09 1.892.27a4.448 4.448 0 011.568.775c.456.348.816.78 1.081 1.297.264.504.396 1.093.396 1.766h-2.252c-.06-.829-.343-1.412-.847-1.748-.505-.348-1.147-.523-1.928-.523-.264 0-.534.03-.81.091a2.276 2.276 0 00-.757.27c-.229.12-.42.288-.577.504-.144.217-.216.487-.216.811 0 .457.138.817.414 1.081.288.252.66.445 1.117.577.048.012.234.066.559.162a86.915 86.915 0 012.306.613c.396.096.679.168.847.216.42.132.787.312 1.099.54.312.229.571.493.775.793.216.288.372.601.468.937.108.336.162.673.162 1.009 0 .721-.15 1.339-.45 1.856a3.69 3.69 0 01-1.153 1.243 4.92 4.92 0 01-1.64.703 7.56 7.56 0 01-1.874.234c-.732 0-1.423-.09-2.072-.27a4.853 4.853 0 01-1.693-.829 4.077 4.077 0 01-1.154-1.423c-.288-.589-.438-1.28-.45-2.073h2.252z" fill="#fff"/><path d="M100.261 134.797v-15.872" stroke="#fff" stroke-width="1.3" stroke-miterlimit="10" stroke-linecap="round"/></g><defs><clipPath id="clip0_144_567"><path fill="#fff" transform="translate(.668 .083)" d="M0 0h155.663v208.3H0z"/></clipPath></defs></svg>