<svg width="108" height="90" fill="none" xmlns="http://www.w3.org/2000/svg"><path d="M46.109 81.231c20.002 2.582 38.318-11.45 40.91-31.343 2.592-19.892-11.522-38.11-31.524-40.692-20.002-2.581-38.319 11.452-40.91 31.344-2.593 19.892 11.521 38.11 31.524 40.691z" stroke="#fff" stroke-width="1.5" stroke-miterlimit="10"/><path d="M84.25 59.839c4.286 8.78 5.336 15.722 2.12 18.638-6.242 5.666-26.206-5.988-44.592-26.017C23.392 32.43 13.548 11.591 19.79 5.925c3.38-3.067 10.78-1.061 19.77 4.6" stroke="#fff" stroke-width="1.5" stroke-miterlimit="10"/><path d="M86.904 51.819c3.723 7.627 4.635 13.653 1.843 16.186-5.42 4.921-22.759-5.194-38.726-22.592C34.054 28.014 25.507 9.92 30.93 5c2.934-2.663 9.36-.922 17.162 3.993" stroke="#fff" stroke-width="1.5" stroke-miterlimit="10"/><path d="M30.607 14.977c-8.373-4.852-15.145-6.389-18.327-3.46-6.314 5.817 3.934 27.03 22.89 47.382C54.123 79.25 74.61 91.037 80.923 85.22c3.035-2.795 2.243-9.146-1.5-17.248" stroke="#fff" stroke-width="1.5" stroke-miterlimit="10"/><path d="M87.085 49.79c10.937-4.526 17.525-9.363 16.747-13.107-1.369-6.592-25.036-7.302-52.86-1.598C23.15 40.79 1.694 50.768 3.062 57.36c.668 3.209 6.621 5.026 15.766 5.385" stroke="#fff" stroke-width="1.5" stroke-miterlimit="10"/><path d="M85.637 34.337c3.82-2.405 5.835-4.738 5.426-6.712-1.155-5.563-21.124-6.167-44.603-1.348-23.48 4.82-41.573 13.234-40.418 18.795.434 2.091 3.528 3.482 8.464 4.147m71.753 4.721c6.365-3.165 9.973-6.365 9.438-8.94-.434-2.086-3.513-3.475-8.431-4.14m0 0c-8.196-1.111-21.498-.218-36.172 2.794C27.616 48.472 9.519 56.887 10.675 62.45c.506 2.404 4.508 3.88 10.793 4.394" stroke="#fff" stroke-width="1.5" stroke-miterlimit="10"/><path d="M83.368 61.7c4.838-2.545 7.537-5.145 7.119-7.35-.96-5.059-17.976-6.117-38.004-2.361-20.028 3.755-35.496 10.898-34.536 15.957.386 2.065 3.463 3.465 8.326 4.142" stroke="#fff" stroke-width="1.5" stroke-miterlimit="10"/><circle cx="19.165" cy="17.604" r="1.996" fill="#fff"/><circle cx="49.799" cy="25.768" r="2.28" fill="#fff"/><circle cx="27.402" cy="41.859" r="2.2" fill="#fff"/><circle cx="29.406" cy="74.817" r="2.004" fill="#fff"/></svg>