<svg width="388" height="33" fill="none" xmlns="http://www.w3.org/2000/svg"><path stroke="#000" stroke-width="1.5" d="M.526 18.111h334.312"/><path d="M387.205 21.596c0 1.262-.658 2.52-1.967 3.72-1.309 1.2-3.231 2.304-5.648 3.241-4.831 1.873-11.539 3.043-18.974 3.043-7.434 0-14.142-1.17-18.973-3.043-2.418-.937-4.339-2.041-5.649-3.241-1.308-1.2-1.966-2.458-1.966-3.72 0-1.263.658-2.52 1.966-3.72 1.31-1.2 3.231-2.304 5.649-3.242 4.831-1.873 11.539-3.042 18.973-3.042 7.435 0 14.143 1.169 18.974 3.042 2.417.938 4.339 2.041 5.648 3.241 1.309 1.2 1.967 2.458 1.967 3.72z" stroke="#000"/><path d="M387.205 16.127c0 1.263-.658 2.52-1.967 3.72-1.309 1.2-3.231 2.304-5.648 3.241-4.831 1.874-11.539 3.043-18.974 3.043-7.434 0-14.142-1.17-18.973-3.043-2.418-.937-4.339-2.04-5.649-3.241-1.308-1.2-1.966-2.457-1.966-3.72 0-1.263.658-2.52 1.966-3.72 1.31-1.2 3.231-2.304 5.649-3.241 4.831-1.874 11.539-3.043 18.973-3.043 7.435 0 14.143 1.17 18.974 3.043 2.417.937 4.339 2.04 5.648 3.24 1.309 1.2 1.967 2.458 1.967 3.72z" stroke="#000"/><path d="M387.205 11.091c0 1.263-.658 2.52-1.967 3.72-1.309 1.2-3.231 2.305-5.648 3.242-4.831 1.873-11.539 3.043-18.974 3.043-7.434 0-14.142-1.17-18.973-3.043-2.418-.937-4.339-2.041-5.649-3.241-1.308-1.2-1.966-2.458-1.966-3.72 0-1.263.658-2.52 1.966-3.72 1.31-1.2 3.231-2.305 5.649-3.242 4.831-1.873 11.539-3.043 18.973-3.043 7.435 0 14.143 1.17 18.974 3.043 2.417.937 4.339 2.041 5.648 3.241 1.309 1.2 1.967 2.458 1.967 3.72z" stroke="#000"/></svg>