<svg width="90" height="86" fill="none" xmlns="http://www.w3.org/2000/svg"><g clip-path="url(#clip0_7_163)" stroke-miterlimit="10"><path d="M17.469 67.551C10.725 60.907 6.553 51.728 6.553 41.592c0-20.277 16.685-36.717 37.268-36.717 4.228 0 15.455.673 23.498 7.614" stroke="#3361BB" stroke-width="8.273"/><path d="M73.156 20.225A36.409 36.409 0 0182.3 44.686c-.166 20.307-16.958 37.43-37.456 36.464-5.417-.255-12.875-1.947-21.137-7.408" stroke="#000" stroke-width="8.273"/><path d="M68.394 34.892l4.44-15.813 6.186.732 10.016 1.44" stroke="#000" stroke-width="5.78"/><path d="M22.63 52.91l-5.144 15.6-6.147-1.01-10.154-1.89" stroke="#3361BB" stroke-width="5.78"/></g><defs><clipPath id="clip0_7_163"><path fill="#fff" transform="translate(.657 .738)" d="M0 0h88.79v84.588H0z"/></clipPath></defs></svg>