<svg width="80" height="74" fill="none" xmlns="http://www.w3.org/2000/svg"><path d="M18.363 46.651L.448 35.725a.868.868 0 01-.262-1.249.868.868 0 01.37-.294L78.636.727a.87.87 0 011.176.547.864.864 0 01.004.482l-19.394 68.52a.865.865 0 01-.89.626.87.87 0 01-.372-.11L38.938 59.688a.884.884 0 00-1.1.217L27.348 72.74a.869.869 0 01-1.507-.312l-7.098-25.277a.785.785 0 00-.38-.5z" fill="#3361BB"/><path d="M38.001 59.134l-7.41-5.212a.34.34 0 00-.53.217l-4.152 18.44c0 .338 1.004.65 1.221.379l10.94-13.39a.337.337 0 00-.069-.434z" fill="#000"/><path d="M18.716 47.044l7.193 25.63a.338.338 0 00.53.175.338.338 0 00.121-.176L30.143 53.8a.312.312 0 01.082-.163L77.645 2.88a.326.326 0 10-.434-.488L18.85 46.72a.324.324 0 00-.135.325z" fill="silver"/></svg>