<svg width="75" height="90" fill="none" xmlns="http://www.w3.org/2000/svg"><path d="M28.462 35.801c9.745 0 17.645-7.9 17.645-17.645 0-9.744-7.9-17.644-17.645-17.644-9.744 0-17.644 7.9-17.644 17.644 0 9.745 7.9 17.645 17.644 17.645zm.001 45.196c15.442 0 27.96-9.782 27.96-21.85 0-12.067-12.518-21.85-27.96-21.85C13.02 37.298.5 47.08.5 59.148s12.52 21.85 27.962 21.85z" fill="#3361BB"/><path fill-rule="evenodd" clip-rule="evenodd" d="M60.351 60.058c6.908-.545 12.066-6.586 11.522-13.494-.545-6.908-6.587-12.066-13.494-11.521-6.908.544-12.066 6.586-11.522 13.494.545 6.907 6.587 12.066 13.494 11.521zm-.48-6.083a6.445 6.445 0 10-1.013-12.85 6.445 6.445 0 001.014 12.85z" fill="#000"/><path d="M54.126 56.506L30.029 84.728" stroke="#000" stroke-width="9.384" stroke-linecap="round"/><rect x="37.924" y="75.861" width="6.034" height="8.78" rx="1.877" transform="rotate(-48.966 37.924 75.861)" fill="#000"/><rect x="32.286" y="82.592" width="6.034" height="8.78" rx="1.877" transform="rotate(-48.966 32.286 82.592)" fill="#000"/></svg>